<svg width="360" height="416" viewBox="0 0 360 416" fill="none" xmlns="http://www.w3.org/2000/svg">
<rect x="2.5" y="2.5" width="355" height="411" rx="17.5" fill="white" stroke="black" stroke-width="5"/>
<rect x="12" y="273" width="332" height="123" rx="20" fill="#FDFAE2"/>
<rect x="12" y="24" width="332" height="123" rx="20" fill="#FDFAE2"/>
<rect x="12" y="165" width="332" height="84" rx="20" fill="#FDFAE2"/>
<path d="M37.5909 42.0909H41.8182V67.0455C41.8182 69.2727 41.4091 71.1648 40.5909 72.7216C39.7727 74.2784 38.6193 75.4602 37.1307 76.267C35.642 77.0739 33.8864 77.4773 31.8636 77.4773C29.9545 77.4773 28.2557 77.1307 26.767 76.4375C25.2784 75.733 24.108 74.733 23.2557 73.4375C22.4034 72.142 21.9773 70.6023 21.9773 68.8182H26.1364C26.1364 69.8068 26.3807 70.6705 26.8693 71.4091C27.3693 72.1364 28.0511 72.7045 28.9148 73.1136C29.7784 73.5227 30.7614 73.7273 31.8636 73.7273C33.0795 73.7273 34.1136 73.4716 34.9659 72.9602C35.8182 72.4489 36.4659 71.6989 36.9091 70.7102C37.3636 69.7102 37.5909 68.4886 37.5909 67.0455V42.0909ZM79.7443 59.5455C79.7443 63.2273 79.0795 66.4091 77.75 69.0909C76.4205 71.7727 74.5966 73.8409 72.2784 75.2955C69.9602 76.75 67.3125 77.4773 64.3352 77.4773C61.358 77.4773 58.7102 76.75 56.392 75.2955C54.0739 73.8409 52.25 71.7727 50.9205 69.0909C49.5909 66.4091 48.9261 63.2273 48.9261 59.5455C48.9261 55.8636 49.5909 52.6818 50.9205 50C52.25 47.3182 54.0739 45.25 56.392 43.7955C58.7102 42.3409 61.358 41.6136 64.3352 41.6136C67.3125 41.6136 69.9602 42.3409 72.2784 43.7955C74.5966 45.25 76.4205 47.3182 77.75 50C79.0795 52.6818 79.7443 55.8636 79.7443 59.5455ZM75.6534 59.5455C75.6534 56.5227 75.1477 53.9716 74.1364 51.892C73.1364 49.8125 71.7784 48.2386 70.0625 47.1705C68.358 46.1023 66.4489 45.5682 64.3352 45.5682C62.2216 45.5682 60.3068 46.1023 58.5909 47.1705C56.8864 48.2386 55.5284 49.8125 54.517 51.892C53.517 53.9716 53.017 56.5227 53.017 59.5455C53.017 62.5682 53.517 65.1193 54.517 67.1989C55.5284 69.2784 56.8864 70.8523 58.5909 71.9205C60.3068 72.9886 62.2216 73.5227 64.3352 73.5227C66.4489 73.5227 68.358 72.9886 70.0625 71.9205C71.7784 70.8523 73.1364 69.2784 74.1364 67.1989C75.1477 65.1193 75.6534 62.5682 75.6534 59.5455ZM109.761 42.0909H113.989V65.2045C113.989 67.5909 113.426 69.7216 112.301 71.5966C111.188 73.4602 109.614 74.9318 107.58 76.0114C105.545 77.0795 103.159 77.6136 100.42 77.6136C97.6818 77.6136 95.2955 77.0795 93.2614 76.0114C91.2273 74.9318 89.6477 73.4602 88.5227 71.5966C87.4091 69.7216 86.8523 67.5909 86.8523 65.2045V42.0909H91.0795V64.8636C91.0795 66.5682 91.4545 68.0852 92.2045 69.4148C92.9545 70.733 94.0227 71.7727 95.4091 72.5341C96.8068 73.2841 98.4773 73.6591 100.42 73.6591C102.364 73.6591 104.034 73.2841 105.432 72.5341C106.83 71.7727 107.898 70.733 108.636 69.4148C109.386 68.0852 109.761 66.5682 109.761 64.8636V42.0909ZM122.43 77V42.0909H134.226C136.953 42.0909 139.192 42.5568 140.942 43.4886C142.692 44.4091 143.987 45.6761 144.828 47.2898C145.669 48.9034 146.089 50.7386 146.089 52.7955C146.089 54.8523 145.669 56.6761 144.828 58.267C143.987 59.858 142.697 61.108 140.959 62.017C139.22 62.9148 136.999 63.3636 134.294 63.3636H124.749V59.5455H134.158C136.021 59.5455 137.521 59.2727 138.658 58.7273C139.805 58.1818 140.635 57.4091 141.146 56.4091C141.669 55.3977 141.93 54.1932 141.93 52.7955C141.93 51.3977 141.669 50.1761 141.146 49.1307C140.624 48.0852 139.788 47.2784 138.641 46.7102C137.493 46.1307 135.976 45.8409 134.089 45.8409H126.658V77H122.43ZM138.862 61.3182L147.453 77H142.544L134.089 61.3182H138.862ZM180.815 42.0909V77H176.724L157.702 49.5909H157.361V77H153.134V42.0909H157.224L176.315 69.5682H176.656V42.0909H180.815ZM190.706 77H186.274L199.092 42.0909H203.456L216.274 77H211.842L201.411 47.6136H201.138L190.706 77ZM192.342 63.3636H210.206V67.1136H192.342V63.3636ZM221.712 77V42.0909H225.939V73.25H242.166V77H221.712ZM252.939 42.0909V77H248.712V42.0909H252.939ZM280.506 50.8182C280.301 49.0909 279.472 47.75 278.017 46.7955C276.563 45.8409 274.778 45.3636 272.665 45.3636C271.119 45.3636 269.767 45.6136 268.608 46.1136C267.46 46.6136 266.563 47.3011 265.915 48.1761C265.278 49.0511 264.96 50.0455 264.96 51.1591C264.96 52.0909 265.182 52.892 265.625 53.5625C266.08 54.2216 266.659 54.7727 267.364 55.2159C268.068 55.6477 268.807 56.0057 269.58 56.2898C270.352 56.5625 271.062 56.7841 271.71 56.9545L275.256 57.9091C276.165 58.1477 277.176 58.4773 278.29 58.8977C279.415 59.3182 280.489 59.892 281.511 60.6193C282.545 61.3352 283.398 62.2557 284.068 63.3807C284.739 64.5057 285.074 65.8864 285.074 67.5227C285.074 69.4091 284.58 71.1136 283.591 72.6364C282.614 74.1591 281.182 75.3693 279.295 76.267C277.42 77.1648 275.142 77.6136 272.46 77.6136C269.96 77.6136 267.795 77.2102 265.966 76.4034C264.148 75.5966 262.716 74.4716 261.67 73.0284C260.636 71.5852 260.051 69.9091 259.915 68H264.278C264.392 69.3182 264.835 70.4091 265.608 71.2727C266.392 72.125 267.381 72.7614 268.574 73.1818C269.778 73.5909 271.074 73.7955 272.46 73.7955C274.074 73.7955 275.523 73.5341 276.807 73.0114C278.091 72.4773 279.108 71.7386 279.858 70.7955C280.608 69.8409 280.983 68.7273 280.983 67.4545C280.983 66.2955 280.659 65.3523 280.011 64.625C279.364 63.8977 278.511 63.3068 277.455 62.8523C276.398 62.3977 275.256 62 274.028 61.6591L269.733 60.4318C267.006 59.6477 264.847 58.5284 263.256 57.0739C261.665 55.6193 260.869 53.7159 260.869 51.3636C260.869 49.4091 261.398 47.7045 262.455 46.25C263.523 44.7841 264.955 43.6477 266.75 42.8409C268.557 42.0227 270.574 41.6136 272.801 41.6136C275.051 41.6136 277.051 42.017 278.801 42.8239C280.551 43.6193 281.938 44.7102 282.96 46.0966C283.994 47.483 284.54 49.0568 284.597 50.8182H280.506ZM292.024 42.0909H297.07L308.933 71.0682H309.342L321.206 42.0909H326.251V77H322.297V50.4773H321.956L311.047 77H307.229L296.32 50.4773H295.979V77H292.024V42.0909ZM24.2273 135V100.091H45.2955V103.841H28.4545V115.636H44.2045V119.386H28.4545V131.25H45.5682V135H24.2273ZM54.9602 100.091L63.9602 114.614H64.233L73.233 100.091H78.2102L67.233 117.545L78.2102 135H73.233L64.233 120.75H63.9602L54.9602 135H49.983L61.233 117.545L49.983 100.091H54.9602ZM83.7116 135V100.091H95.5071C98.2457 100.091 100.484 100.585 102.223 101.574C103.973 102.551 105.268 103.875 106.109 105.545C106.95 107.216 107.371 109.08 107.371 111.136C107.371 113.193 106.95 115.062 106.109 116.744C105.28 118.426 103.996 119.767 102.257 120.767C100.518 121.756 98.2912 122.25 95.5753 122.25H87.1207V118.5H95.4389C97.3139 118.5 98.8196 118.176 99.956 117.528C101.092 116.881 101.916 116.006 102.428 114.903C102.95 113.79 103.212 112.534 103.212 111.136C103.212 109.739 102.95 108.489 102.428 107.386C101.916 106.284 101.087 105.42 99.9389 104.795C98.7912 104.159 97.2685 103.841 95.3707 103.841H87.9389V135H83.7116ZM114.18 135V100.091H135.249V103.841H118.408V115.636H134.158V119.386H118.408V131.25H135.521V135H114.18ZM142.868 135V100.091H154.663C157.391 100.091 159.629 100.557 161.379 101.489C163.129 102.409 164.425 103.676 165.266 105.29C166.107 106.903 166.527 108.739 166.527 110.795C166.527 112.852 166.107 114.676 165.266 116.267C164.425 117.858 163.135 119.108 161.396 120.017C159.658 120.915 157.436 121.364 154.732 121.364H145.186V117.545H154.595C156.459 117.545 157.959 117.273 159.095 116.727C160.243 116.182 161.072 115.409 161.584 114.409C162.107 113.398 162.368 112.193 162.368 110.795C162.368 109.398 162.107 108.176 161.584 107.131C161.061 106.085 160.226 105.278 159.078 104.71C157.93 104.131 156.413 103.841 154.527 103.841H147.095V135H142.868ZM159.3 119.318L167.891 135H162.982L154.527 119.318H159.3ZM177.798 100.091V135H173.571V100.091H177.798ZM186.274 135V100.091H207.342V103.841H190.501V115.636H206.251V119.386H190.501V131.25H207.615V135H186.274ZM242.643 100.091V135H238.553L219.53 107.591H219.189V135H214.962V100.091H219.053L238.143 127.568H238.484V100.091H242.643ZM279.193 111H274.966C274.716 109.784 274.278 108.716 273.653 107.795C273.04 106.875 272.29 106.102 271.403 105.477C270.528 104.841 269.557 104.364 268.489 104.045C267.42 103.727 266.307 103.568 265.148 103.568C263.034 103.568 261.119 104.102 259.403 105.17C257.699 106.239 256.341 107.812 255.33 109.892C254.33 111.972 253.83 114.523 253.83 117.545C253.83 120.568 254.33 123.119 255.33 125.199C256.341 127.278 257.699 128.852 259.403 129.92C261.119 130.989 263.034 131.523 265.148 131.523C266.307 131.523 267.42 131.364 268.489 131.045C269.557 130.727 270.528 130.256 271.403 129.631C272.29 128.994 273.04 128.216 273.653 127.295C274.278 126.364 274.716 125.295 274.966 124.091H279.193C278.875 125.875 278.295 127.472 277.455 128.881C276.614 130.29 275.568 131.489 274.318 132.477C273.068 133.455 271.665 134.199 270.108 134.71C268.563 135.222 266.909 135.477 265.148 135.477C262.17 135.477 259.523 134.75 257.205 133.295C254.886 131.841 253.063 129.773 251.733 127.091C250.403 124.409 249.739 121.227 249.739 117.545C249.739 113.864 250.403 110.682 251.733 108C253.063 105.318 254.886 103.25 257.205 101.795C259.523 100.341 262.17 99.6136 265.148 99.6136C266.909 99.6136 268.563 99.8693 270.108 100.381C271.665 100.892 273.068 101.642 274.318 102.631C275.568 103.608 276.614 104.801 277.455 106.21C278.295 107.608 278.875 109.205 279.193 111ZM286.024 135V100.091H307.092V103.841H290.251V115.636H306.001V119.386H290.251V131.25H307.365V135H286.024Z" fill="black"/>
<path d="M24.2273 227V192.091H45.2955V195.841H28.4545V207.636H44.2045V211.386H28.4545V223.25H45.5682V227H24.2273ZM63.6875 227H52.9148V192.091H64.1648C67.5511 192.091 70.4489 192.79 72.858 194.188C75.267 195.574 77.1136 197.568 78.3977 200.17C79.6818 202.761 80.3239 205.864 80.3239 209.477C80.3239 213.114 79.6761 216.244 78.3807 218.869C77.0852 221.483 75.1989 223.494 72.7216 224.903C70.2443 226.301 67.233 227 63.6875 227ZM57.142 223.25H63.4148C66.3011 223.25 68.6932 222.693 70.5909 221.58C72.4886 220.466 73.9034 218.881 74.8352 216.824C75.767 214.767 76.233 212.318 76.233 209.477C76.233 206.659 75.7727 204.233 74.8523 202.199C73.9318 200.153 72.5568 198.585 70.7273 197.494C68.8977 196.392 66.6193 195.841 63.892 195.841H57.142V223.25ZM110.324 192.091H114.551V215.205C114.551 217.591 113.989 219.722 112.864 221.597C111.75 223.46 110.176 224.932 108.142 226.011C106.108 227.08 103.722 227.614 100.983 227.614C98.2443 227.614 95.858 227.08 93.8239 226.011C91.7898 224.932 90.2102 223.46 89.0852 221.597C87.9716 219.722 87.4148 217.591 87.4148 215.205V192.091H91.642V214.864C91.642 216.568 92.017 218.085 92.767 219.415C93.517 220.733 94.5852 221.773 95.9716 222.534C97.3693 223.284 99.0398 223.659 100.983 223.659C102.926 223.659 104.597 223.284 105.994 222.534C107.392 221.773 108.46 220.733 109.199 219.415C109.949 218.085 110.324 216.568 110.324 214.864V192.091ZM151.084 203H146.857C146.607 201.784 146.169 200.716 145.544 199.795C144.93 198.875 144.18 198.102 143.294 197.477C142.419 196.841 141.447 196.364 140.379 196.045C139.311 195.727 138.197 195.568 137.038 195.568C134.925 195.568 133.01 196.102 131.294 197.17C129.589 198.239 128.232 199.812 127.22 201.892C126.22 203.972 125.72 206.523 125.72 209.545C125.72 212.568 126.22 215.119 127.22 217.199C128.232 219.278 129.589 220.852 131.294 221.92C133.01 222.989 134.925 223.523 137.038 223.523C138.197 223.523 139.311 223.364 140.379 223.045C141.447 222.727 142.419 222.256 143.294 221.631C144.18 220.994 144.93 220.216 145.544 219.295C146.169 218.364 146.607 217.295 146.857 216.091H151.084C150.766 217.875 150.186 219.472 149.345 220.881C148.504 222.29 147.459 223.489 146.209 224.477C144.959 225.455 143.555 226.199 141.999 226.71C140.453 227.222 138.8 227.477 137.038 227.477C134.061 227.477 131.413 226.75 129.095 225.295C126.777 223.841 124.953 221.773 123.624 219.091C122.294 216.409 121.629 213.227 121.629 209.545C121.629 205.864 122.294 202.682 123.624 200C124.953 197.318 126.777 195.25 129.095 193.795C131.413 192.341 134.061 191.614 137.038 191.614C138.8 191.614 140.453 191.869 141.999 192.381C143.555 192.892 144.959 193.642 146.209 194.631C147.459 195.608 148.504 196.801 149.345 198.21C150.186 199.608 150.766 201.205 151.084 203ZM159.347 227H154.915L167.733 192.091H172.097L184.915 227H180.483L170.051 197.614H169.778L159.347 227ZM160.983 213.364H178.847V217.114H160.983V213.364ZM184.365 195.841V192.091H210.547V195.841H199.57V227H195.342V195.841H184.365ZM221.298 192.091V227H217.071V192.091H221.298ZM259.229 209.545C259.229 213.227 258.564 216.409 257.234 219.091C255.905 221.773 254.081 223.841 251.763 225.295C249.445 226.75 246.797 227.477 243.82 227.477C240.842 227.477 238.195 226.75 235.876 225.295C233.558 223.841 231.734 221.773 230.405 219.091C229.075 216.409 228.411 213.227 228.411 209.545C228.411 205.864 229.075 202.682 230.405 200C231.734 197.318 233.558 195.25 235.876 193.795C238.195 192.341 240.842 191.614 243.82 191.614C246.797 191.614 249.445 192.341 251.763 193.795C254.081 195.25 255.905 197.318 257.234 200C258.564 202.682 259.229 205.864 259.229 209.545ZM255.138 209.545C255.138 206.523 254.632 203.972 253.621 201.892C252.621 199.812 251.263 198.239 249.547 197.17C247.842 196.102 245.933 195.568 243.82 195.568C241.706 195.568 239.791 196.102 238.075 197.17C236.371 198.239 235.013 199.812 234.001 201.892C233.001 203.972 232.501 206.523 232.501 209.545C232.501 212.568 233.001 215.119 234.001 217.199C235.013 219.278 236.371 220.852 238.075 221.92C239.791 222.989 241.706 223.523 243.82 223.523C245.933 223.523 247.842 222.989 249.547 221.92C251.263 220.852 252.621 219.278 253.621 217.199C254.632 215.119 255.138 212.568 255.138 209.545ZM294.018 192.091V227H289.928L270.905 199.591H270.564V227H266.337V192.091H270.428L289.518 219.568H289.859V192.091H294.018Z" fill="black"/>
<path d="M43.3182 299.818C43.1136 298.091 42.2841 296.75 40.8295 295.795C39.375 294.841 37.5909 294.364 35.4773 294.364C33.9318 294.364 32.5795 294.614 31.4205 295.114C30.2727 295.614 29.375 296.301 28.7273 297.176C28.0909 298.051 27.7727 299.045 27.7727 300.159C27.7727 301.091 27.9943 301.892 28.4375 302.562C28.892 303.222 29.4716 303.773 30.1761 304.216C30.8807 304.648 31.6193 305.006 32.392 305.29C33.1648 305.562 33.875 305.784 34.5227 305.955L38.0682 306.909C38.9773 307.148 39.9886 307.477 41.1023 307.898C42.2273 308.318 43.3011 308.892 44.3239 309.619C45.358 310.335 46.2102 311.256 46.8807 312.381C47.5511 313.506 47.8864 314.886 47.8864 316.523C47.8864 318.409 47.392 320.114 46.4034 321.636C45.4261 323.159 43.9943 324.369 42.108 325.267C40.233 326.165 37.9545 326.614 35.2727 326.614C32.7727 326.614 30.608 326.21 28.7784 325.403C26.9602 324.597 25.5284 323.472 24.483 322.028C23.4489 320.585 22.8636 318.909 22.7273 317H27.0909C27.2045 318.318 27.6477 319.409 28.4205 320.273C29.2045 321.125 30.1932 321.761 31.3864 322.182C32.5909 322.591 33.8864 322.795 35.2727 322.795C36.8864 322.795 38.3352 322.534 39.6193 322.011C40.9034 321.477 41.9205 320.739 42.6705 319.795C43.4205 318.841 43.7955 317.727 43.7955 316.455C43.7955 315.295 43.4716 314.352 42.8239 313.625C42.1761 312.898 41.3239 312.307 40.267 311.852C39.2102 311.398 38.0682 311 36.8409 310.659L32.5455 309.432C29.8182 308.648 27.6591 307.528 26.0682 306.074C24.4773 304.619 23.6818 302.716 23.6818 300.364C23.6818 298.409 24.2102 296.705 25.267 295.25C26.3352 293.784 27.767 292.648 29.5625 291.841C31.3693 291.023 33.3864 290.614 35.6136 290.614C37.8636 290.614 39.8636 291.017 41.6136 291.824C43.3636 292.619 44.75 293.71 45.7727 295.097C46.8068 296.483 47.3523 298.057 47.4091 299.818H43.3182ZM54.8366 326V291.091H59.0639V308.409H59.473L75.1548 291.091H80.6776L66.0185 306.841L80.6776 326H75.5639L63.4276 309.773L59.0639 314.682V326H54.8366ZM90.3764 291.091V326H86.1491V291.091H90.3764ZM98.8523 326V291.091H103.08V322.25H119.307V326H98.8523ZM125.852 326V291.091H130.08V322.25H146.307V326H125.852ZM171.943 299.818C171.739 298.091 170.909 296.75 169.455 295.795C168 294.841 166.216 294.364 164.102 294.364C162.557 294.364 161.205 294.614 160.045 295.114C158.898 295.614 158 296.301 157.352 297.176C156.716 298.051 156.398 299.045 156.398 300.159C156.398 301.091 156.619 301.892 157.062 302.562C157.517 303.222 158.097 303.773 158.801 304.216C159.506 304.648 160.244 305.006 161.017 305.29C161.79 305.562 162.5 305.784 163.148 305.955L166.693 306.909C167.602 307.148 168.614 307.477 169.727 307.898C170.852 308.318 171.926 308.892 172.949 309.619C173.983 310.335 174.835 311.256 175.506 312.381C176.176 313.506 176.511 314.886 176.511 316.523C176.511 318.409 176.017 320.114 175.028 321.636C174.051 323.159 172.619 324.369 170.733 325.267C168.858 326.165 166.58 326.614 163.898 326.614C161.398 326.614 159.233 326.21 157.403 325.403C155.585 324.597 154.153 323.472 153.108 322.028C152.074 320.585 151.489 318.909 151.352 317H155.716C155.83 318.318 156.273 319.409 157.045 320.273C157.83 321.125 158.818 321.761 160.011 322.182C161.216 322.591 162.511 322.795 163.898 322.795C165.511 322.795 166.96 322.534 168.244 322.011C169.528 321.477 170.545 320.739 171.295 319.795C172.045 318.841 172.42 317.727 172.42 316.455C172.42 315.295 172.097 314.352 171.449 313.625C170.801 312.898 169.949 312.307 168.892 311.852C167.835 311.398 166.693 311 165.466 310.659L161.17 309.432C158.443 308.648 156.284 307.528 154.693 306.074C153.102 304.619 152.307 302.716 152.307 300.364C152.307 298.409 152.835 296.705 153.892 295.25C154.96 293.784 156.392 292.648 158.188 291.841C159.994 291.023 162.011 290.614 164.239 290.614C166.489 290.614 168.489 291.017 170.239 291.824C171.989 292.619 173.375 293.71 174.398 295.097C175.432 296.483 175.977 298.057 176.034 299.818H171.943ZM198.393 326H193.962L206.78 291.091H211.143L223.962 326H219.53L209.098 296.614H208.825L198.393 326ZM200.03 312.364H217.893V316.114H200.03V312.364ZM257.081 291.091V326H252.99L233.967 298.591H233.626V326H229.399V291.091H233.49L252.581 318.568H252.922V291.091H257.081ZM276.312 326H265.54V291.091H276.79C280.176 291.091 283.074 291.79 285.483 293.188C287.892 294.574 289.739 296.568 291.023 299.17C292.307 301.761 292.949 304.864 292.949 308.477C292.949 312.114 292.301 315.244 291.006 317.869C289.71 320.483 287.824 322.494 285.347 323.903C282.869 325.301 279.858 326 276.312 326ZM269.767 322.25H276.04C278.926 322.25 281.318 321.693 283.216 320.58C285.114 319.466 286.528 317.881 287.46 315.824C288.392 313.767 288.858 311.318 288.858 308.477C288.858 305.659 288.398 303.233 287.477 301.199C286.557 299.153 285.182 297.585 283.352 296.494C281.523 295.392 279.244 294.841 276.517 294.841H269.767V322.25ZM53.6818 366.545C53.6818 370.227 53.017 373.409 51.6875 376.091C50.358 378.773 48.5341 380.841 46.2159 382.295C43.8977 383.75 41.25 384.477 38.2727 384.477C35.2955 384.477 32.6477 383.75 30.3295 382.295C28.0114 380.841 26.1875 378.773 24.858 376.091C23.5284 373.409 22.8636 370.227 22.8636 366.545C22.8636 362.864 23.5284 359.682 24.858 357C26.1875 354.318 28.0114 352.25 30.3295 350.795C32.6477 349.341 35.2955 348.614 38.2727 348.614C41.25 348.614 43.8977 349.341 46.2159 350.795C48.5341 352.25 50.358 354.318 51.6875 357C53.017 359.682 53.6818 362.864 53.6818 366.545ZM49.5909 366.545C49.5909 363.523 49.0852 360.972 48.0739 358.892C47.0739 356.812 45.7159 355.239 44 354.17C42.2955 353.102 40.3864 352.568 38.2727 352.568C36.1591 352.568 34.2443 353.102 32.5284 354.17C30.8239 355.239 29.4659 356.812 28.4545 358.892C27.4545 360.972 26.9545 363.523 26.9545 366.545C26.9545 369.568 27.4545 372.119 28.4545 374.199C29.4659 376.278 30.8239 377.852 32.5284 378.92C34.2443 379.989 36.1591 380.523 38.2727 380.523C40.3864 380.523 42.2955 379.989 44 378.92C45.7159 377.852 47.0739 376.278 48.0739 374.199C49.0852 372.119 49.5909 369.568 49.5909 366.545ZM57.4276 352.841V349.091H83.6094V352.841H72.6321V384H68.4048V352.841H57.4276ZM90.1335 384V349.091H94.3608V364.636H112.974V349.091H117.202V384H112.974V368.386H94.3608V384H90.1335ZM125.665 384V349.091H146.733V352.841H129.892V364.636H145.642V368.386H129.892V380.25H147.006V384H125.665ZM154.352 384V349.091H166.148C168.875 349.091 171.114 349.557 172.864 350.489C174.614 351.409 175.909 352.676 176.75 354.29C177.591 355.903 178.011 357.739 178.011 359.795C178.011 361.852 177.591 363.676 176.75 365.267C175.909 366.858 174.619 368.108 172.881 369.017C171.142 369.915 168.92 370.364 166.216 370.364H156.67V366.545H166.08C167.943 366.545 169.443 366.273 170.58 365.727C171.727 365.182 172.557 364.409 173.068 363.409C173.591 362.398 173.852 361.193 173.852 359.795C173.852 358.398 173.591 357.176 173.068 356.131C172.545 355.085 171.71 354.278 170.562 353.71C169.415 353.131 167.898 352.841 166.011 352.841H158.58V384H154.352ZM170.784 368.318L179.375 384H174.466L166.011 368.318H170.784Z" fill="black"/>
</svg>
